<svg width="16" height="16" viewBox="0 0 16 16" fill="none" xmlns="http://www.w3.org/2000/svg">
<path d="M13.3346 6.66634C13.3346 9.99501 9.64197 13.4617 8.40197 14.5323C8.16466 14.7108 7.83794 14.7108 7.60064 14.5323C6.36064 13.4617 2.66797 9.99501 2.66797 6.66634C2.66797 3.72279 5.05776 1.33301 8.0013 1.33301C10.9448 1.33301 13.3346 3.72279 13.3346 6.66634" stroke="#E3CAA2" stroke-width="1.33333" stroke-linecap="round" stroke-linejoin="round"/>
<path d="M6 6.66699C6 7.77082 6.89617 8.66699 8 8.66699C9.10383 8.66699 10 7.77082 10 6.66699C10 5.56316 9.10383 4.66699 8 4.66699C6.89617 4.66699 6 5.56316 6 6.66699V6.66699" stroke="#E3CAA2" stroke-width="1.33333" stroke-linecap="round" stroke-linejoin="round"/>
</svg>
