<svg width="16" height="16" viewBox="0 0 16 16" fill="none" xmlns="http://www.w3.org/2000/svg">
<path d="M4.66667 10.8665C6.13333 10.8665 7.33333 9.64654 7.33333 8.16654C7.33333 7.3932 6.95333 6.65987 6.19333 6.03987C5.43333 5.41987 4.86 4.49987 4.66667 3.5332C4.47333 4.49987 3.90667 5.42654 3.14 6.03987C2.37333 6.6532 2 7.39987 2 8.16654C2 9.64654 3.2 10.8665 4.66667 10.8665V10.8665" stroke="#2FB5D8" stroke-width="1.33333" stroke-linecap="round" stroke-linejoin="round"/>
<path d="M8.37193 4.40034C8.83043 3.66776 9.15546 2.8597 9.33193 2.01367C9.66526 3.68034 10.6653 5.28034 11.9986 6.34701C13.3319 7.41367 13.9986 8.68034 13.9986 10.0137C14.0064 11.8983 12.8766 13.6015 11.1373 14.3273C9.39806 15.0531 7.39274 14.6582 6.05859 13.327" stroke="#2FB5D8" stroke-width="1.33333" stroke-linecap="round" stroke-linejoin="round"/>
</svg>
