<svg width="16" height="16" viewBox="0 0 16 16" fill="none" xmlns="http://www.w3.org/2000/svg">
<g clip-path="url(#clip0_241_382)">
<path d="M8.53203 13.067C8.99613 13.4151 9.63203 13.4231 10.1048 13.0869C10.5775 12.7507 10.7786 12.1474 10.6022 11.5947C10.4257 11.0421 9.91215 10.667 9.33203 10.667H1.33203" stroke="#2FB5D8" stroke-width="1.33333" stroke-linecap="round" stroke-linejoin="round"/>
<path d="M11.6654 5.33379C12.1356 4.70678 12.9792 4.49214 13.692 4.81815C14.4047 5.14417 14.794 5.92275 14.6272 6.68856C14.4603 7.45436 13.7825 8.00046 12.9987 8.00046H1.33203" stroke="#2FB5D8" stroke-width="1.33333" stroke-linecap="round" stroke-linejoin="round"/>
<path d="M6.53203 2.93366C6.99613 2.58559 7.63203 2.57754 8.10479 2.91376C8.57754 3.24998 8.77865 3.8533 8.60218 4.40593C8.4257 4.95856 7.91215 5.33366 7.33203 5.33366H1.33203" stroke="#2FB5D8" stroke-width="1.33333" stroke-linecap="round" stroke-linejoin="round"/>
</g>
<defs>
<clipPath id="clip0_241_382">
<rect width="16" height="16" fill="white"/>
</clipPath>
</defs>
</svg>
