<svg width="31" height="31" viewBox="0 0 31 31" fill="none" xmlns="http://www.w3.org/2000/svg">
<path d="M6.83594 30.5566H0.478516V10.1172H6.83594V30.5566ZM3.62305 7.38281C1.64062 7.38281 0 5.67383 0 3.62305C0 1.64062 1.64062 0 3.62305 0C5.67383 0 7.31445 1.64062 7.31445 3.62305C7.31445 5.67383 5.67383 7.38281 3.62305 7.38281ZM30.5566 30.5566H24.2676V20.6445C24.2676 18.252 24.1992 15.2441 20.918 15.2441C17.6367 15.2441 17.1582 17.7734 17.1582 20.4395V30.5566H10.8008V10.1172H16.8848V12.9199H16.9531C17.8418 11.3477 19.8926 9.63867 22.9688 9.63867C29.3945 9.63867 30.625 13.877 30.625 19.3457V30.5566H30.5566Z" fill="#26235C"/>
</svg>
