<svg width="34" height="34" viewBox="0 0 34 34" fill="none" xmlns="http://www.w3.org/2000/svg">
<path d="M16.9531 0C26.25 0 33.9062 7.65625 33.9062 16.9531C33.9062 26.3184 26.25 33.9062 16.9531 33.9062C7.58789 33.9062 0 26.3184 0 16.9531C0 7.65625 7.58789 0 16.9531 0ZM28.0957 7.86133C27.8223 8.27148 25.4297 11.3477 20.0293 13.5352C20.5762 14.6289 20.918 15.4492 21.3281 16.4062C26.1133 15.791 30.8984 16.748 31.377 16.8848C31.377 13.4668 30.1465 10.3223 28.0957 7.86133ZM26.5234 6.15234C22.9688 3.00781 18.1152 1.8457 13.5352 2.93945C13.9453 3.48633 16.543 7.04102 18.9355 11.416C24.0625 9.50195 26.25 6.5625 26.5234 6.15234ZM10.7324 3.89648C6.69922 5.81055 3.69141 9.57031 2.73438 14.0137C3.41797 14.082 9.36523 14.082 16.1328 12.3047C13.7402 7.99805 11.1426 4.44336 10.7324 3.89648ZM2.46094 17.0215C2.46094 20.7129 3.82812 24.1309 6.15234 26.6602C8.47656 22.6953 13.2617 18.457 18.5254 16.9531C18.1152 16.1328 17.7734 15.3125 17.2949 14.4922C10.1172 16.6797 3.07617 16.6113 2.46094 16.543C2.46094 16.748 2.46094 16.8848 2.46094 17.0215ZM7.99805 28.4375C12.3047 31.7871 17.9102 32.334 22.5586 30.3516C22.3535 29.0527 21.5332 24.6094 19.4824 19.3457C13.6719 21.3281 9.57031 25.3613 7.99805 28.4375ZM25.0195 28.9844C28.2324 26.7969 30.5566 23.3105 31.2402 19.2773C30.6934 19.1406 26.7285 17.9785 22.2168 18.6621C24.0625 23.9258 24.8828 28.1641 25.0195 28.9844Z" fill="#26235C"/>
</svg>
