<svg width="34" height="34" viewBox="0 0 34 34" fill="none" xmlns="http://www.w3.org/2000/svg">
<path d="M11.2793 26.6602C11.2793 26.7969 11.1426 26.8652 10.9375 26.8652C10.7324 26.9336 10.5957 26.7969 10.5957 26.6602C10.5957 26.5234 10.7324 26.3867 10.9375 26.3867C11.1426 26.3867 11.2793 26.5234 11.2793 26.6602ZM9.16016 26.3184C9.22852 26.1816 9.43359 26.1133 9.63867 26.1816C9.84375 26.25 9.91211 26.3867 9.91211 26.5234C9.84375 26.6602 9.63867 26.7285 9.50195 26.6602C9.29688 26.6602 9.16016 26.4551 9.16016 26.3184ZM12.2363 26.25C12.373 26.1816 12.5781 26.3184 12.5781 26.4551C12.6465 26.5918 12.5098 26.6602 12.3047 26.7285C12.0996 26.7969 11.8945 26.7285 11.8945 26.5918C11.8945 26.3867 12.0312 26.25 12.2363 26.25ZM16.6797 0C26.1816 0 33.9062 7.24609 33.9062 16.6797C33.9062 24.2676 29.2578 30.7617 22.4219 33.0176C21.5332 33.2227 21.1914 32.6758 21.1914 32.1973C21.1914 31.6504 21.2598 28.7793 21.2598 26.5234C21.2598 24.8828 20.7129 23.8574 20.0977 23.3105C23.9258 22.9004 27.959 22.3535 27.959 15.791C27.959 13.877 27.2754 12.9883 26.1816 11.7578C26.3184 11.2793 26.9336 9.50195 25.9766 7.10938C24.541 6.63086 21.2598 8.95508 21.2598 8.95508C19.8926 8.54492 18.457 8.4082 16.9531 8.4082C15.5176 8.4082 14.082 8.54492 12.7148 8.95508C12.7148 8.95508 9.36523 6.69922 7.99805 7.10938C7.04102 9.50195 7.58789 11.2793 7.79297 11.7578C6.69922 12.9883 6.15234 13.877 6.15234 15.791C6.15234 22.3535 10.0488 22.9004 13.877 23.3105C13.3301 23.7891 12.9199 24.541 12.7832 25.6348C11.7578 26.1133 9.29688 26.8652 7.79297 24.1992C6.83594 22.5586 5.12695 22.4219 5.12695 22.4219C3.48633 22.4219 5.05859 23.5156 5.05859 23.5156C6.15234 23.9941 6.9043 25.9766 6.9043 25.9766C7.92969 29.0527 12.7148 28.0273 12.7148 28.0273C12.7148 29.4629 12.7148 31.7871 12.7148 32.2656C12.7148 32.6758 12.4414 33.2227 11.5527 33.0859C4.7168 30.7617 0 24.2676 0 16.6797C0 7.24609 7.24609 0 16.6797 0ZM6.63086 23.584C6.69922 23.5156 6.83594 23.584 6.97266 23.6523C7.10938 23.7891 7.10938 23.9941 7.04102 24.0625C6.9043 24.1309 6.76758 24.0625 6.63086 23.9941C6.5625 23.8574 6.49414 23.6523 6.63086 23.584ZM5.87891 23.0371C5.94727 22.9688 6.01562 22.9688 6.15234 23.0371C6.28906 23.1055 6.35742 23.1738 6.35742 23.2422C6.28906 23.3789 6.15234 23.3789 6.01562 23.3105C5.87891 23.2422 5.81055 23.1738 5.87891 23.0371ZM8.06641 25.498C8.20312 25.3613 8.4082 25.4297 8.54492 25.5664C8.68164 25.7031 8.68164 25.9082 8.61328 25.9766C8.54492 26.1133 8.33984 26.0449 8.20312 25.9082C7.99805 25.7715 7.99805 25.5664 8.06641 25.498ZM7.31445 24.4727C7.45117 24.4043 7.58789 24.4727 7.72461 24.6094C7.79297 24.7461 7.79297 24.9512 7.72461 25.0195C7.58789 25.0879 7.45117 25.0195 7.31445 24.8828C7.17773 24.7461 7.17773 24.541 7.31445 24.4727Z" fill="#26235C"/>
</svg>
