<svg width="31" height="31" viewBox="0 0 31 31" fill="none" xmlns="http://www.w3.org/2000/svg">
<path d="M15.3809 7.45117C19.6875 7.45117 23.2422 11.0059 23.2422 15.3125C23.2422 19.6875 19.6875 23.1738 15.3809 23.1738C11.0059 23.1738 7.51953 19.6875 7.51953 15.3125C7.51953 11.0059 11.0059 7.45117 15.3809 7.45117ZM15.3809 20.4395C18.1836 20.4395 20.4395 18.1836 20.4395 15.3125C20.4395 12.5098 18.1836 10.2539 15.3809 10.2539C12.5098 10.2539 10.2539 12.5098 10.2539 15.3125C10.2539 18.1836 12.5781 20.4395 15.3809 20.4395ZM25.3613 7.17773C25.3613 8.20312 24.541 9.02344 23.5156 9.02344C22.4902 9.02344 21.6699 8.20312 21.6699 7.17773C21.6699 6.15234 22.4902 5.33203 23.5156 5.33203C24.541 5.33203 25.3613 6.15234 25.3613 7.17773ZM30.5566 9.02344C30.6934 11.5527 30.6934 19.1406 30.5566 21.6699C30.4199 24.1309 29.873 26.25 28.0957 28.0957C26.3184 29.873 24.1309 30.4199 21.6699 30.5566C19.1406 30.6934 11.5527 30.6934 9.02344 30.5566C6.5625 30.4199 4.44336 29.873 2.59766 28.0957C0.820312 26.25 0.273438 24.1309 0.136719 21.6699C0 19.1406 0 11.5527 0.136719 9.02344C0.273438 6.5625 0.820312 4.375 2.59766 2.59766C4.44336 0.820312 6.5625 0.273438 9.02344 0.136719C11.5527 0 19.1406 0 21.6699 0.136719C24.1309 0.273438 26.3184 0.820312 28.0957 2.59766C29.873 4.375 30.4199 6.5625 30.5566 9.02344ZM27.2754 24.3359C28.0957 22.3535 27.8906 17.5684 27.8906 15.3125C27.8906 13.125 28.0957 8.33984 27.2754 6.28906C26.7285 4.99023 25.7031 3.89648 24.4043 3.41797C22.3535 2.59766 17.5684 2.80273 15.3809 2.80273C13.125 2.80273 8.33984 2.59766 6.35742 3.41797C4.99023 3.96484 3.96484 4.99023 3.41797 6.28906C2.59766 8.33984 2.80273 13.125 2.80273 15.3125C2.80273 17.5684 2.59766 22.3535 3.41797 24.3359C3.96484 25.7031 4.99023 26.7285 6.35742 27.2754C8.33984 28.0957 13.125 27.8906 15.3809 27.8906C17.5684 27.8906 22.3535 28.0957 24.4043 27.2754C25.7031 26.7285 26.7969 25.7031 27.2754 24.3359Z" fill="#26235C"/>
</svg>
