<svg width="35" height="29" viewBox="0 0 35 29" fill="none" xmlns="http://www.w3.org/2000/svg">
<path d="M31.377 7.04102C31.377 7.38281 31.377 7.65625 31.377 7.99805C31.377 17.5 24.1992 28.3691 11.0059 28.3691C6.9043 28.3691 3.14453 27.207 0 25.1562C0.546875 25.2246 1.09375 25.293 1.70898 25.293C5.05859 25.293 8.13477 24.1309 10.5957 22.2168C7.45117 22.1484 4.78516 20.0977 3.89648 17.2266C4.375 17.2949 4.78516 17.3633 5.26367 17.3633C5.87891 17.3633 6.5625 17.2266 7.10938 17.0898C3.82812 16.4062 1.36719 13.5352 1.36719 10.0488V9.98047C2.32422 10.5273 3.48633 10.8008 4.64844 10.8691C2.66602 9.57031 1.43555 7.38281 1.43555 4.92188C1.43555 3.55469 1.77734 2.32422 2.39258 1.29883C5.94727 5.60547 11.2793 8.47656 17.2266 8.81836C17.0898 8.27148 17.0215 7.72461 17.0215 7.17773C17.0215 3.21289 20.2344 0 24.1992 0C26.25 0 28.0957 0.820312 29.4629 2.25586C31.0352 1.91406 32.6074 1.29883 33.9746 0.478516C33.4277 2.1875 32.334 3.55469 30.8301 4.44336C32.2656 4.30664 33.7012 3.89648 34.9316 3.34961C33.9746 4.78516 32.7441 6.01562 31.377 7.04102Z" fill="#26235C"/>
</svg>
